<?xml version="1.0" encoding="iso-8859-1"?>
<!-- Uploaded to: SVG Repo, www.svgrepo.com, Generator: SVG Repo Mixer Tools -->
<svg height="800px" width="800px" version="1.1" id="Layer_1" xmlns="http://www.w3.org/2000/svg" xmlns:xlink="http://www.w3.org/1999/xlink" 
	 viewBox="0 0 512 512" xml:space="preserve">
<g>
	<path style="fill:#4C213A;" d="M356.257,309.059c-7.611,0-13.78-6.169-13.78-13.78c0-47.695-38.803-86.499-86.499-86.499
		s-86.499,38.803-86.499,86.499c0,7.611-6.169,13.78-13.78,13.78s-13.78-6.169-13.78-13.78c0-62.892,51.167-114.059,114.059-114.059
		s114.059,51.167,114.059,114.059C370.037,302.889,363.867,309.059,356.257,309.059z"/>
	<path style="fill:#4C213A;" d="M169.044,465.211H55.809C25.036,465.211,0,440.176,0,409.402V265.399
		c0-90.871,73.93-164.801,164.801-164.801h4.243c30.774,0,55.809,25.036,55.809,55.809c0,7.611-6.169,13.78-13.78,13.78
		s-13.78-6.169-13.78-13.78c0-15.577-12.672-28.249-28.249-28.249h-4.243c-75.674,0-137.241,61.566-137.241,137.241v144.003
		c0,15.577,12.672,28.249,28.249,28.249h113.235c15.576,0,28.249-12.672,28.249-28.249V261.071c0-7.611,6.169-13.78,13.78-13.78
		s13.78,6.169,13.78,13.78v148.332C224.852,440.176,199.816,465.211,169.044,465.211z"/>
</g>
<path style="fill:#E7B3A8;" d="M82.949,396.311c-7.76,0-14.049-6.291-14.049-14.049V265.401c0-43.506,29.117-80.338,68.889-92.03
	c9.059-2.664,18.161,3.998,18.161,13.44v195.452c0,7.76-6.291,14.049-14.049,14.049L82.949,396.311L82.949,396.311z"/>
<g>
	<path style="fill:#4C213A;" d="M141.903,410.091H82.949c-15.345,0-27.829-12.485-27.829-27.829V265.401
		c0-48.333,32.397-91.614,78.783-105.251c2.598-0.763,5.274-1.151,7.957-1.151c15.367,0,27.872,12.476,27.872,27.812v195.451
		C169.731,397.606,157.247,410.091,141.903,410.091z M141.86,186.558c-0.05,0-0.113,0.011-0.183,0.032
		c-34.737,10.211-58.996,42.619-58.996,78.809v116.862c0,0.149,0.12,0.269,0.269,0.269h58.952c0.149,0,0.269-0.12,0.269-0.269
		V186.81C142.145,186.678,142.016,186.558,141.86,186.558z"/>
	<path style="fill:#4C213A;" d="M456.191,465.211H342.956c-30.774,0-55.809-25.036-55.809-55.809V261.071
		c0-7.611,6.169-13.78,13.78-13.78c7.611,0,13.78,6.169,13.78,13.78v148.332c0,15.577,12.672,28.249,28.249,28.249h113.235
		c15.577,0,28.249-12.672,28.249-28.249V265.399c0-75.676-61.566-137.241-137.241-137.241h-4.243
		c-15.576,0-28.249,12.672-28.249,28.249c0,7.611-6.169,13.78-13.78,13.78s-13.78-6.169-13.78-13.78
		c0-30.774,25.036-55.809,55.809-55.809h4.243c90.871,0,164.801,73.93,164.801,164.801v144.003
		C512,440.176,486.964,465.211,456.191,465.211z"/>
</g>
<path style="fill:#E7B3A8;" d="M429.05,396.311c7.76,0,14.049-6.291,14.049-14.049V265.401c0-43.506-29.117-80.338-68.889-92.03
	c-9.059-2.664-18.161,3.998-18.161,13.44v195.452c0,7.76,6.291,14.049,14.049,14.049L429.05,396.311L429.05,396.311z"/>
<g>
	<path style="fill:#4C213A;" d="M429.05,410.091h-58.952c-15.345,0-27.829-12.485-27.829-27.829V186.81
		c0-15.334,12.503-27.812,27.872-27.812c2.683,0,5.359,0.387,7.957,1.151c46.386,13.637,78.783,56.917,78.783,105.251v116.862
		C456.88,397.606,444.395,410.091,429.05,410.091z M370.139,186.558c-0.154,0-0.285,0.119-0.305,0.157l-0.005,195.546
		c0,0.149,0.12,0.269,0.269,0.269h58.952c0.149,0,0.269-0.12,0.269-0.269V265.399c0-36.191-24.26-68.598-58.996-78.808
		C370.253,186.571,370.19,186.558,370.139,186.558z"/>
	<path style="fill:#4C213A;" d="M256,208.78c-7.611,0-13.78-6.169-13.78-13.78V60.569c0-7.611,6.169-13.78,13.78-13.78
		c7.611,0,13.78,6.169,13.78,13.78V195C269.78,202.611,263.611,208.78,256,208.78z"/>
</g>
</svg>